<?xml version="1.0" encoding="UTF-8"?>
<svg width="958px" height="696px" viewBox="0 0 958 696" version="1.1" xmlns="http://www.w3.org/2000/svg" xmlns:xlink="http://www.w3.org/1999/xlink">
    <!-- Generator: Sketch 52.6 (67491) - http://www.bohemiancoding.com/sketch -->
    <title>Shape</title>
    <desc>Created with Sketch.</desc>
    <g id="Page-1" stroke="none" stroke-width="1" fill="none" fill-rule="evenodd">
        <g id="image" fill="#FF0000" fill-rule="nonzero">
            <path d="M868.64,0 L88.93,0 C39.8313155,0.0386017803 0.0386017803,39.8313155 -9.88098492e-15,88.93 L-9.88098492e-15,606.93 C0.0386017803,656.028685 39.8313155,695.821398 88.93,695.86 L868.64,695.86 C917.75039,695.821379 957.547943,656.0104 957.57,606.9 L957.57,88.9 C957.514861,39.8130316 917.726984,0.038576784 868.64,0 Z M931.57,606.9 C931.531422,641.639287 903.379287,669.791422 868.64,669.83 L88.93,669.83 C54.1907127,669.791422 26.0385778,641.639287 26,606.9 L26,384.46 L75.22,384.46 L75.22,621.46 L727.57,621.46 C765.08,621.46 882.33,592.54 882.33,466.69 C882.33,398.69 844.81,365.86 813.55,347.1 C844.81,329.9 882.33,297.1 882.33,229.1 C882.33,104.04 765.87,74.34 727.57,74.34 L75.22,74.34 L75.22,310.46 L26,310.46 L26,88.93 C26.0330673,54.1868075 54.1868132,26.0285878 88.93,25.99 L868.64,25.99 C903.383187,26.0285878 931.536933,54.1868075 931.57,88.93 L931.57,606.9 Z M727.57,384.65 C732.25,384.65 808.08,386.99 808.08,466.72 C808.08,544.89 732.25,547.23 727.57,547.23 L149.48,547.23 L149.48,384.65 L727.57,384.65 Z M149.48,310.39 L149.48,148.59 L727.57,148.59 C732.25,148.59 808.08,150.94 808.08,229.1 C808.08,308.83 732.25,310.39 727.57,310.39 L149.48,310.39 Z" id="Shape"></path>
        </g>
    </g>
</svg>